<?xml version="1.0" standalone="no"?>
<!DOCTYPE svg PUBLIC "-//W3C//DTD SVG 20010904//EN"
 "http://www.w3.org/TR/2001/REC-SVG-20010904/DTD/svg10.dtd">
<svg version="1.0" xmlns="http://www.w3.org/2000/svg"
 width="822.000000pt" height="822.000000pt" viewBox="0 0 822.000000 822.000000"
 preserveAspectRatio="xMidYMid meet">
<metadata>
Created by potrace 1.11, written by Peter Selinger 2001-2013
</metadata>
<g transform="translate(0.000000,822.000000) scale(0.100000,-0.100000)"
fill="#000000" stroke="none">
<path d="M7655 8210 c-4 -6 -10 -8 -14 -6 -4 3 -47 -5 -96 -18 l-89 -22 -78
-109 -78 -110 -63 -18 c-34 -10 -69 -20 -77 -21 -8 -2 -35 -9 -60 -16 -25 -7
-49 -13 -55 -14 -5 -1 -14 -4 -20 -7 -11 -7 -56 -19 -90 -25 -14 -2 -230 -61
-230 -63 0 -2 -138 -39 -175 -47 -14 -2 -36 -9 -50 -14 -25 -9 -321 -89 -351
-95 -21 -4 -99 -28 -99 -30 0 -1 14 -30 31 -66 34 -70 77 -165 80 -177 2 -11
10 -34 20 -62 8 -24 32 -124 44 -186 25 -127 24 -348 0 -509 -2 -11 -4 -20 -5
-20 -1 0 -3 -9 -5 -20 -5 -37 -13 -70 -24 -98 -10 -26 -9 -27 17 -22 23 4 134
33 284 75 21 6 40 11 43 11 2 0 19 5 37 10 31 10 155 45 188 54 8 2 42 11 75
20 33 9 67 18 75 20 8 2 74 20 145 40 72 20 137 37 145 39 8 2 35 10 60 17 25
7 50 13 55 15 6 1 37 9 70 18 33 9 69 19 79 21 10 2 33 9 51 15 95 31 118 30
200 -9 147 -71 154 -73 199 -57 195 70 216 79 212 95 -39 125 -48 157 -52 175
-2 12 -8 32 -13 46 -9 22 -50 159 -56 185 -1 6 -5 17 -8 25 -5 12 -75 250 -92
310 -19 69 -77 268 -82 280 -3 8 -7 20 -8 25 -2 6 -17 57 -34 115 -18 58 -34
116 -37 129 -3 13 -9 31 -13 40 -5 9 -10 21 -10 26 -5 40 -31 60 -46 35z"/>
<path d="M4667 7833 c-1 -1 -29 -5 -62 -8 -33 -4 -70 -11 -82 -16 -13 -5 -23
-6 -23 -4 0 8 -142 -46 -205 -78 -262 -131 -458 -387 -521 -682 -25 -115 -20
-336 10 -415 3 -8 7 -27 10 -41 6 -39 55 -157 88 -212 15 -26 28 -52 28 -57 0
-6 4 -10 8 -10 4 0 16 -15 26 -32 41 -71 265 -268 304 -268 6 0 12 -3 14 -7 8
-20 194 -92 273 -107 137 -26 319 -23 430 8 79 22 108 32 153 52 29 13 55 24
57 24 3 0 42 24 88 54 139 90 269 232 338 368 16 32 29 60 29 63 1 3 9 25 20
51 11 25 22 55 24 67 2 12 9 40 15 62 26 97 29 289 7 390 -20 85 -30 121 -39
133 -5 6 -7 12 -4 12 9 0 -44 121 -65 149 -10 13 -18 28 -18 33 0 31 -189 239
-252 276 -16 9 -28 20 -28 24 0 4 -6 8 -14 8 -8 0 -16 4 -18 8 -6 15 -164 90
-233 110 -67 20 -85 25 -165 38 -33 5 -189 11 -193 7z"/>
<path d="M3140 6786 c-19 -7 -38 -14 -42 -15 -5 0 -9 -1 -10 -2 -2 0 -10 -2
-18 -4 -61 -15 -73 -18 -170 -45 -41 -11 -82 -22 -91 -25 -9 -2 -49 -13 -89
-25 -40 -12 -81 -24 -91 -26 -42 -9 -61 -14 -219 -59 -91 -25 -176 -48 -190
-51 -14 -3 -65 -17 -115 -31 -152 -43 -239 -65 -252 -66 -7 0 -13 -5 -13 -10
0 -6 -3 -8 -6 -5 -5 6 -125 -23 -164 -39 -8 -3 -22 -7 -30 -8 -8 -1 -42 -10
-75 -19 -100 -28 -249 -68 -270 -72 -11 -2 -31 -8 -45 -13 -14 -5 -95 -28
-180 -51 -284 -77 -283 -77 -326 -87 -11 -2 -51 10 -90 27 -38 18 -93 43 -122
57 -36 16 -60 22 -75 17 -12 -4 -26 -9 -32 -10 -5 -1 -30 -7 -55 -14 -25 -7
-53 -14 -62 -15 -9 -2 -26 -9 -37 -15 -12 -6 -21 -9 -21 -7 0 2 -28 -4 -62
-13 -57 -16 -63 -20 -60 -41 3 -22 27 -113 53 -199 6 -19 12 -42 13 -50 2 -8
6 -22 9 -30 3 -8 12 -42 21 -75 8 -33 22 -87 32 -120 16 -59 19 -73 29 -117 3
-13 9 -34 14 -48 5 -14 19 -63 31 -110 12 -47 29 -106 36 -131 8 -25 17 -55
19 -67 3 -12 7 -32 10 -44 3 -13 12 -45 20 -73 21 -71 76 -272 87 -323 12 -51
-3 -52 220 9 l158 44 77 110 78 111 240 64 c132 36 243 65 248 66 4 1 8 2 10
4 1 1 9 3 17 5 8 2 51 14 95 26 44 11 87 23 95 25 8 2 39 10 68 19 76 22 151
43 160 44 5 1 49 13 92 26 24 7 87 19 93 17 4 -1 7 2 7 6 0 5 6 9 13 9 6 0 73
17 147 37 74 20 142 39 150 40 8 2 58 16 110 30 118 33 112 32 185 51 33 9 67
17 75 20 8 2 15 4 15 5 0 1 7 3 15 5 8 1 35 8 60 15 25 7 52 14 60 16 8 2 38
10 65 18 58 17 243 66 265 71 8 2 15 4 15 5 0 1 7 3 15 5 8 1 41 10 74 20 32
9 64 18 70 19 6 2 31 8 56 15 25 7 56 15 69 18 14 2 28 6 33 9 5 3 21 8 36 10
15 3 30 9 35 13 4 4 -22 35 -57 69 -67 65 -155 163 -170 191 -5 9 -14 21 -20
27 -27 29 -43 53 -78 117 -7 12 -17 25 -21 28 -5 3 -9 10 -9 15 -1 5 -13 36
-28 69 -15 33 -33 78 -40 100 -7 22 -16 49 -21 60 -8 21 -20 67 -26 100 -2 11
-6 34 -9 50 -18 94 -21 121 -17 132 3 7 1 13 -3 13 -5 0 -8 20 -7 45 1 40 -1
45 -20 44 -12 0 -38 -6 -57 -13z"/>
<path d="M4605 5587 c-71 -19 -127 -50 -177 -99 -54 -54 -15 13 -341 -588 -16
-30 -33 -59 -37 -65 -4 -5 -33 -59 -64 -118 -32 -60 -71 -132 -87 -160 -16
-29 -41 -74 -55 -102 -14 -27 -35 -68 -47 -90 -13 -22 -45 -80 -71 -130 -27
-49 -65 -119 -84 -155 -20 -36 -43 -80 -51 -97 -8 -18 -19 -33 -23 -33 -4 0
-8 -9 -8 -20 0 -11 -4 -20 -9 -20 -5 0 -12 -9 -16 -19 -3 -11 -29 -62 -57
-113 -27 -51 -61 -114 -75 -140 -24 -46 -45 -58 -88 -48 -9 2 -76 11 -170 24
-70 9 -119 16 -155 22 -19 4 -51 8 -70 9 -19 2 -53 6 -75 9 -42 6 -102 15
-145 21 -209 31 -307 26 -420 -22 -8 -3 -17 -7 -20 -7 -20 -4 -94 -58 -135
-101 -45 -44 -204 -303 -204 -329 1 -5 -3 -12 -8 -15 -9 -6 -71 -113 -108
-186 -11 -22 -23 -42 -26 -45 -4 -3 -19 -30 -34 -60 -16 -30 -34 -62 -41 -70
-7 -8 -14 -22 -16 -30 -2 -8 -6 -17 -9 -20 -10 -9 -89 -152 -89 -161 0 -5 -4
-9 -10 -9 -5 0 -10 -6 -10 -13 0 -7 -11 -29 -25 -50 -14 -20 -23 -37 -20 -37
4 0 -2 -12 -13 -27 -17 -25 -41 -67 -101 -178 -9 -16 -19 -32 -22 -35 -3 -3
-18 -32 -33 -64 -96 -205 27 -478 274 -608 46 -24 123 -55 156 -63 11 -2 37
-9 59 -15 57 -14 161 -13 222 4 106 29 210 114 255 209 13 26 26 47 30 47 5 0
8 5 8 11 0 5 24 51 53 102 28 51 59 106 67 122 8 17 19 36 25 44 12 16 82 143
122 221 15 30 32 59 36 65 5 5 46 78 92 160 l82 150 49 -1 c27 0 69 -4 94 -8
126 -19 220 -32 290 -40 25 -3 61 -8 80 -11 19 -3 53 -7 75 -10 22 -3 56 -8
75 -10 19 -3 51 -7 70 -10 19 -2 49 -6 65 -9 17 -3 50 -8 75 -11 25 -3 61 -7
80 -10 42 -6 102 -14 150 -20 19 -2 51 -7 70 -10 19 -3 52 -8 73 -10 20 -3 54
-7 75 -10 20 -2 53 -7 72 -10 19 -3 53 -8 75 -11 87 -11 111 -14 135 -19 14
-4 69 -8 123 -10 173 -6 291 39 407 155 51 51 83 97 144 210 44 80 91 165 105
190 13 25 34 63 45 85 12 22 26 43 31 47 6 4 6 8 1 8 -5 0 -4 6 2 13 5 6 21
32 35 57 64 118 87 160 118 218 19 35 48 89 66 120 18 31 38 68 45 82 15 31
107 200 155 284 19 33 37 69 40 79 6 20 28 16 78 -13 17 -10 66 -37 110 -60
132 -70 140 -75 145 -80 3 -3 30 -18 60 -33 30 -16 87 -46 125 -68 39 -21 89
-49 113 -61 23 -12 42 -26 42 -31 0 -4 -34 -70 -75 -144 -41 -75 -75 -139 -75
-143 0 -4 -7 -13 -15 -20 -8 -7 -12 -16 -9 -21 3 -5 1 -9 -4 -9 -5 0 -16 -17
-25 -37 -9 -21 -32 -65 -50 -98 -198 -355 -219 -403 -218 -517 0 -88 14 -151
53 -238 20 -42 93 -141 110 -148 5 -2 14 -10 21 -17 33 -32 146 -77 227 -91
58 -9 152 -12 165 -5 6 3 19 6 30 7 57 6 154 47 193 82 13 12 27 22 31 24 16
7 92 107 116 153 28 53 76 141 117 215 14 25 47 86 74 135 27 50 55 102 64
117 8 15 26 49 40 75 14 26 28 50 33 51 4 2 7 9 7 14 0 6 28 61 62 122 35 61
62 114 60 119 -1 4 3 7 8 7 6 0 10 4 10 8 0 5 32 67 72 138 86 155 134 257
143 304 15 72 12 202 -6 256 -40 121 -83 166 -238 250 -58 32 -120 66 -138 76
-18 9 -63 34 -100 54 -37 20 -94 52 -126 70 -32 19 -60 34 -62 34 -2 0 -27 13
-55 30 -27 16 -50 27 -50 23 0 -3 -8 0 -17 8 -10 8 -27 19 -38 25 -11 6 -45
24 -75 41 -30 17 -131 72 -225 123 -93 51 -262 143 -375 205 -113 62 -236 129
-275 150 -38 20 -83 45 -100 54 -16 10 -66 37 -110 61 -44 23 -129 70 -190
103 -60 33 -128 70 -150 81 -22 12 -42 23 -45 26 -3 3 -25 16 -50 29 -25 13
-88 46 -140 74 -52 28 -117 59 -145 69 -65 24 -214 32 -280 15z"/>
<path d="M2927 5424 c-1 -2 -17 -5 -35 -9 -94 -16 -215 -83 -282 -157 -64 -69
-92 -112 -116 -179 -22 -62 -28 -95 -27 -169 0 -118 37 -190 164 -321 24 -25
92 -97 151 -160 191 -205 287 -304 290 -299 4 6 18 31 60 110 19 36 67 121
105 190 38 69 88 159 111 200 22 41 79 144 125 228 l85 154 -170 166 c-94 92
-175 172 -182 177 -14 13 -70 39 -117 54 -33 11 -155 22 -162 15z"/>
<path d="M3376 1938 c-15 -29 -42 -80 -60 -113 -81 -149 -106 -195 -145 -265
-23 -41 -49 -92 -58 -112 -9 -21 -20 -38 -25 -38 -4 0 -8 -9 -8 -20 0 -11 -4
-20 -8 -20 -4 0 -15 -15 -23 -32 -22 -47 -93 -182 -99 -188 -3 -3 -25 -43 -49
-90 -24 -47 -49 -92 -55 -100 -6 -8 -24 -42 -41 -75 -16 -33 -33 -61 -37 -63
-5 -2 -8 -12 -8 -23 0 -10 -4 -19 -10 -19 -5 0 -10 -6 -10 -14 0 -7 -7 -19
-15 -26 -8 -6 -14 -15 -13 -18 1 -4 -3 -17 -10 -29 -7 -13 -10 -23 -6 -23 3 0
0 -7 -7 -16 -13 -16 -18 -149 -7 -189 35 -119 82 -198 178 -294 121 -123 245
-172 417 -166 54 2 105 6 113 8 8 2 29 7 45 12 56 14 157 68 187 99 32 34 50
66 183 321 109 210 183 353 245 470 75 142 143 271 201 385 30 58 56 107 59
110 3 3 34 61 69 130 35 69 83 163 108 209 24 46 41 86 38 89 -2 3 -15 6 -27
8 -13 1 -41 5 -63 8 -22 3 -58 8 -79 11 -22 3 -51 7 -65 9 -14 3 -51 8 -81 12
-30 4 -68 9 -85 11 -16 2 -48 6 -70 8 -22 2 -40 4 -40 5 0 3 -29 7 -90 14 -59
7 -71 9 -150 21 -51 7 -99 14 -155 21 -25 3 -56 7 -70 9 -14 2 -52 7 -86 10
l-61 7 -27 -54z"/>
</g>
</svg>
